<svg width="1398" height="163" viewBox="0 0 1398 163" fill="none" xmlns="http://www.w3.org/2000/svg">
<path d="M0.295391 163V0.849987H40.7154L86.3054 98.14L131.895 0.849987H172.315V163H138.475V60.54L100.405 141.85H72.2054L34.1354 60.54V163H0.295391ZM195.929 156.655L244.104 0.849987H295.804L343.979 156.655L339.749 163H311.549L301.679 130.1H238.229L228.359 163H200.159L195.929 156.655ZM247.394 99.55H292.514L271.834 31.4H268.074L247.394 99.55ZM367.483 163V0.849987H401.323V65.005L458.663 0.849987H490.388L493.678 7.665L439.863 67.59L499.553 156.185L496.498 163H465.243L418.008 92.03L401.323 110.125V163H367.483ZM525.374 163V0.849987H636.294V31.4H559.214V64.3H629.244V94.85H559.214V132.45H636.294V163H525.374ZM666.73 127.045V36.805C666.73 12.835 678.715 0.849987 702.685 0.849987H768.955L779.53 9.07499V18.71H702.45C691.796 18.71 686.47 24.0367 686.47 34.69V129.16C686.47 139.813 691.796 145.14 702.45 145.14H779.53V154.775L768.955 163H702.685C678.715 163 666.73 151.015 666.73 127.045ZM810.162 127.045V36.805C810.162 12.835 822.147 0.849987 846.117 0.849987H901.107C925.077 0.849987 937.062 12.835 937.062 36.805V127.045C937.062 151.015 925.077 163 901.107 163H846.117C822.147 163 810.162 151.015 810.162 127.045ZM829.902 129.16C829.902 139.813 835.229 145.14 845.882 145.14H901.342C911.996 145.14 917.322 139.813 917.322 129.16V34.69C917.322 24.0367 911.996 18.71 901.342 18.71H845.882C835.229 18.71 829.902 24.0367 829.902 34.69V129.16ZM977.058 163V0.849987H1040.51C1079.67 0.849987 1099.26 20.4333 1099.26 59.6V104.25C1099.26 143.417 1079.67 163 1040.51 163H977.058ZM996.798 145.14H1041.68C1066.91 145.14 1079.52 132.528 1079.52 107.305V56.545C1079.52 31.3217 1066.91 18.71 1041.68 18.71H996.798V145.14ZM1136.78 163V0.849987H1242.53V18.71H1156.52V69H1235.48V86.86H1156.52V145.14H1242.53V163H1136.78ZM1275.4 163V0.849987H1338.85C1378.01 0.849987 1397.6 20.4333 1397.6 59.6V104.25C1397.6 143.417 1378.01 163 1338.85 163H1275.4ZM1295.14 145.14H1340.02C1365.25 145.14 1377.86 132.528 1377.86 107.305V56.545C1377.86 31.3217 1365.25 18.71 1340.02 18.71H1295.14V145.14Z" fill="black"/>
</svg>
